<svg width="70" height="70" viewBox="0 0 70 70" fill="none" xmlns="http://www.w3.org/2000/svg">
<path d="M67.4999 67.4003H64.9999C62.3477 67.4003 59.8042 66.3467 57.9288 64.4714C56.0534 62.596 54.9999 60.0525 54.9999 57.4003C54.9999 60.0525 53.9463 62.596 52.0709 64.4714C50.1956 66.3467 47.652 67.4003 44.9999 67.4003C42.3477 67.4003 39.8042 66.3467 37.9288 64.4714C36.0534 62.596 34.9999 60.0525 34.9999 57.4003C34.9999 60.0525 33.9463 62.596 32.0709 64.4714C30.1956 66.3467 27.652 67.4003 24.9999 67.4003C22.3477 67.4003 19.8042 66.3467 17.9288 64.4714C16.0534 62.596 14.9999 60.0525 14.9999 57.4003C14.9999 60.0525 13.9463 62.596 12.0709 64.4714C10.1956 66.3467 7.65204 67.4003 4.99988 67.4003H2.49988M49.9999 47.4003C47.4247 44.2695 44.1882 41.7479 40.5226 40.0167C36.8571 38.2855 32.8537 37.3877 28.7999 37.3877C24.7461 37.3877 20.7426 38.2855 17.0771 40.0167C13.4116 41.7479 10.175 44.2695 7.59988 47.4003" stroke="#BA68C8" stroke-width="4" stroke-linecap="round" stroke-linejoin="round"/>
<path d="M32.4999 37.65C32.7999 26.35 36.2499 16.05 43.7499 12.35M28.7999 2.85001C32.0411 2.2118 35.4036 2.84132 38.1944 4.60881C40.9851 6.3763 42.9915 9.14706 43.7999 12.35" stroke="#BA68C8" stroke-width="4" stroke-linecap="round" stroke-linejoin="round"/>
<path d="M62.05 14.2001C59.7487 11.7152 56.6194 10.156 53.2498 9.81539C49.8801 9.47474 46.502 10.3761 43.75 12.3501" stroke="#BA68C8" stroke-width="4" stroke-linecap="round" stroke-linejoin="round"/>
<path d="M25.3999 17.6998C27.3592 14.8134 30.2632 12.7001 33.6124 11.7236C36.9616 10.7471 40.5464 10.9686 43.7499 12.3498C46.9632 13.1357 49.7453 15.1397 51.5086 17.9386C53.2719 20.7375 53.8784 24.1121 53.1999 27.3498" stroke="#BA68C8" stroke-width="4" stroke-linecap="round" stroke-linejoin="round"/>
</svg>
