<svg width="375" height="49" viewBox="0 0 375 49" fill="none" xmlns="http://www.w3.org/2000/svg">
<rect width="375" height="49" fill="#263238"/>
<path d="M53 21.4891C53 21.1805 53.1425 20.8892 53.3861 20.6997L61.3861 14.4775C61.7472 14.1966 62.2528 14.1966 62.6139 14.4775L70.6139 20.6997C70.8575 20.8892 71 21.1805 71 21.4891V32C71 32.5304 70.7893 33.0391 70.4142 33.4142C70.0391 33.7893 69.5304 34 69 34H55C54.4696 34 53.9609 33.7893 53.5858 33.4142C53.2107 33.0391 53 32.5304 53 32V21.4891Z" stroke="#BA68C8" stroke-width="1.5" stroke-linecap="round" stroke-linejoin="round"/>
<path d="M59 34V24H65V34" stroke="#BA68C8" stroke-width="1.5" stroke-linecap="round" stroke-linejoin="round"/>
<g opacity="0.6">
<path d="M189 14H181C180.47 14 179.961 14.2107 179.586 14.5858C179.211 14.9609 179 15.4696 179 16V32C179 32.5304 179.211 33.0391 179.586 33.4142C179.961 33.7893 180.47 34 181 34H193C193.53 34 194.039 33.7893 194.414 33.4142C194.789 33.0391 195 32.5304 195 32V20V14H189Z" stroke="#EFFFF0" stroke-width="1.5" stroke-linecap="round" stroke-linejoin="round"/>
<path d="M191 24H183" stroke="#EFFFF0" stroke-width="1.5" stroke-linecap="round" stroke-linejoin="round"/>
<path d="M191 28H183" stroke="#EFFFF0" stroke-width="1.5" stroke-linecap="round" stroke-linejoin="round"/>
<path d="M191 20H184H183" stroke="#EFFFF0" stroke-width="1.5" stroke-linecap="round" stroke-linejoin="round"/>
</g>
<g opacity="0.6" clip-path="url(#clip0_0_6)">
<path d="M313 27C314.657 27 316 25.6569 316 24C316 22.3431 314.657 21 313 21C311.343 21 310 22.3431 310 24C310 25.6569 311.343 27 313 27Z" stroke="#EFFFF0" stroke-width="1.5" stroke-linecap="round" stroke-linejoin="round"/>
<path d="M320.4 27C320.267 27.3016 320.227 27.6362 320.286 27.9606C320.345 28.285 320.499 28.5843 320.73 28.82L320.79 28.88C320.976 29.0657 321.123 29.2863 321.224 29.5291C321.325 29.7719 321.377 30.0322 321.377 30.295C321.377 30.5578 321.325 30.8181 321.224 31.0609C321.123 31.3037 320.976 31.5243 320.79 31.71C320.604 31.896 320.384 32.0435 320.141 32.1441C319.898 32.2448 319.638 32.2966 319.375 32.2966C319.112 32.2966 318.852 32.2448 318.609 32.1441C318.366 32.0435 318.146 31.896 317.96 31.71L317.9 31.65C317.664 31.4195 317.365 31.2648 317.041 31.206C316.716 31.1472 316.382 31.1869 316.08 31.32C315.784 31.4468 315.532 31.6572 315.354 31.9255C315.177 32.1938 315.081 32.5082 315.08 32.83V33C315.08 33.5304 314.869 34.0391 314.494 34.4142C314.119 34.7893 313.61 35 313.08 35C312.55 35 312.041 34.7893 311.666 34.4142C311.291 34.0391 311.08 33.5304 311.08 33V32.91C311.072 32.579 310.965 32.258 310.773 31.9887C310.58 31.7194 310.311 31.5143 310 31.4C309.698 31.2669 309.364 31.2272 309.039 31.286C308.715 31.3448 308.416 31.4995 308.18 31.73L308.12 31.79C307.934 31.976 307.714 32.1235 307.471 32.2241C307.228 32.3248 306.968 32.3766 306.705 32.3766C306.442 32.3766 306.182 32.3248 305.939 32.2241C305.696 32.1235 305.476 31.976 305.29 31.79C305.104 31.6043 304.957 31.3837 304.856 31.1409C304.755 30.8981 304.703 30.6378 304.703 30.375C304.703 30.1122 304.755 29.8519 304.856 29.6091C304.957 29.3663 305.104 29.1457 305.29 28.96L305.35 28.9C305.581 28.6643 305.735 28.365 305.794 28.0406C305.853 27.7162 305.813 27.3816 305.68 27.08C305.553 26.7842 305.343 26.532 305.074 26.3543C304.806 26.1766 304.492 26.0813 304.17 26.08H304C303.47 26.08 302.961 25.8693 302.586 25.4942C302.211 25.1191 302 24.6104 302 24.08C302 23.5496 302.211 23.0409 302.586 22.6658C302.961 22.2907 303.47 22.08 304 22.08H304.09C304.421 22.0723 304.742 21.9651 305.011 21.7725C305.281 21.5799 305.486 21.3107 305.6 21C305.733 20.6984 305.773 20.3638 305.714 20.0394C305.655 19.715 305.501 19.4157 305.27 19.18L305.21 19.12C305.024 18.9343 304.877 18.7137 304.776 18.4709C304.675 18.2281 304.623 17.9678 304.623 17.705C304.623 17.4422 304.675 17.1819 304.776 16.9391C304.877 16.6963 305.024 16.4757 305.21 16.29C305.396 16.104 305.616 15.9565 305.859 15.8559C306.102 15.7552 306.362 15.7034 306.625 15.7034C306.888 15.7034 307.148 15.7552 307.391 15.8559C307.634 15.9565 307.854 16.104 308.04 16.29L308.1 16.35C308.336 16.5805 308.635 16.7352 308.959 16.794C309.284 16.8528 309.618 16.8131 309.92 16.68H310C310.296 16.5532 310.548 16.3428 310.726 16.0745C310.903 15.8062 310.999 15.4918 311 15.17V15C311 14.4696 311.211 13.9609 311.586 13.5858C311.961 13.2107 312.47 13 313 13C313.53 13 314.039 13.2107 314.414 13.5858C314.789 13.9609 315 14.4696 315 15V15.09C315.001 15.4118 315.097 15.7262 315.274 15.9945C315.452 16.2628 315.704 16.4732 316 16.6C316.302 16.7331 316.636 16.7728 316.961 16.714C317.285 16.6552 317.584 16.5005 317.82 16.27L317.88 16.21C318.066 16.024 318.286 15.8765 318.529 15.7759C318.772 15.6752 319.032 15.6234 319.295 15.6234C319.558 15.6234 319.818 15.6752 320.061 15.7759C320.304 15.8765 320.524 16.024 320.71 16.21C320.896 16.3957 321.043 16.6163 321.144 16.8591C321.245 17.1019 321.297 17.3622 321.297 17.625C321.297 17.8878 321.245 18.1481 321.144 18.3909C321.043 18.6337 320.896 18.8543 320.71 19.04L320.65 19.1C320.419 19.3357 320.265 19.635 320.206 19.9594C320.147 20.2838 320.187 20.6184 320.32 20.92V21C320.447 21.2958 320.657 21.548 320.926 21.7257C321.194 21.9034 321.508 21.9987 321.83 22H322C322.53 22 323.039 22.2107 323.414 22.5858C323.789 22.9609 324 23.4696 324 24C324 24.5304 323.789 25.0391 323.414 25.4142C323.039 25.7893 322.53 26 322 26H321.91C321.588 26.0013 321.274 26.0966 321.006 26.2743C320.737 26.452 320.527 26.7042 320.4 27Z" stroke="#EFFFF0" stroke-width="1.5" stroke-linecap="round" stroke-linejoin="round"/>
</g>
<defs>
<clipPath id="clip0_0_6">
<rect width="24" height="24" fill="white" transform="translate(301 12)"/>
</clipPath>
</defs>
</svg>
