<svg width="137" height="102" viewBox="0 0 137 102" fill="none" xmlns="http://www.w3.org/2000/svg">
<path d="M5.07994 66.8558L5.54089 66.6575L5.07994 66.8558ZM136.551 98.469L131.196 96.256L131.957 102L136.551 98.469ZM5.07994 0.116751C4.59207 -0.000668446 4.59201 -0.000420549 4.59192 -9.84021e-06C4.59183 0.00034449 4.59169 0.00091825 4.59152 0.00162609C4.59118 0.00304187 4.59069 0.00510736 4.59004 0.0078189C4.58874 0.013242 4.58683 0.0212492 4.58432 0.0318113C4.5793 0.0529353 4.57188 0.0842787 4.56218 0.125606C4.54278 0.208261 4.51427 0.330853 4.47758 0.491502C4.40419 0.812795 4.2981 1.28633 4.16686 1.89704C3.90438 3.11844 3.54124 4.88873 3.13787 7.08742C2.33122 11.4842 1.36313 17.5971 0.717642 24.4613C-0.570882 38.1635 -0.584875 54.9589 4.61899 67.0541L5.54089 66.6575C0.44421 54.8114 0.430216 38.2372 1.71683 24.5552C2.35891 17.7273 3.32217 11.6444 4.12499 7.26852C4.52634 5.08084 4.88746 3.32053 5.14805 2.1079C5.27835 1.50161 5.3835 1.03228 5.45597 0.714967C5.49221 0.55631 5.52028 0.435662 5.53923 0.354901C5.54871 0.314521 5.55591 0.284113 5.56071 0.263913C5.56311 0.253813 5.56491 0.246264 5.5661 0.241298C5.56669 0.238814 5.56713 0.236976 5.56742 0.235787C5.56756 0.235193 5.56766 0.234789 5.56773 0.234491C5.56779 0.234249 5.56781 0.234171 5.07994 0.116751ZM4.61899 67.0541C9.2705 77.8655 18.3083 85.4434 29.512 90.6933C40.713 95.9418 54.1133 98.881 67.5625 100.402C94.4618 103.445 121.668 100.828 132.133 99.5605L132.012 98.5641C121.573 99.8282 94.4584 102.435 67.6753 99.4051C54.2834 97.8902 41.0022 94.969 29.9379 89.7845C18.8764 84.6013 10.0652 77.1733 5.54089 66.6575L4.61899 67.0541Z" fill="#BA68C8"/>
</svg>
